PathFileType	4	(X/Y/Z)	C:\Users\ebm\Documents\Erivelton\Erivelton\propulsion2.trc
DataRate	CameraRate	NumFrames	NumMarkers	Units	OrigDataRate	OrigDataStartFrame	OrigNumFrames
150.00	150.00	      4	28	mm	150.00	316	      1261
Frame#	Time	IJ			PX			C7			T8			RAC			RAS			RPS			RAI			RPI			RLE			RME			RRS			RUS			R3M			R5M			LAC			LAS			LPS			LAI			LPI			LLE			LME			LRS			LUS			L3M			L5M			RW			LW			V_mid_elbow_r			V_mid_elbow_l			V_mid_wrist_r			V_mid_wrist_l			V_mid_trunk_low			V_mid_trunk_upp			
		X1	Y1	Z1	X2	Y2	Z2	X3	Y3	Z3	X4	Y4	Z4	X5	Y5	Z5	X6	Y6	Z6	X7	Y7	Z7	X8	Y8	Z8	X9	Y9	Z9	X10	Y10	Z10	X11	Y11	Z11	X12	Y12	Z12	X13	Y13	Z13	X14	Y14	Z14	X15	Y15	Z15	X16	Y16	Z16	X17	Y17	Z17	X18	Y18	Z18	X19	Y19	Z19	X20	Y20	Z20	X21	Y21	Z21	X22	Y22	Z22	X23	Y23	Z23	X24	Y24	Z24	X25	Y25	Z25	X26	Y26	Z26	X27	Y27	Z27	X28	Y28	Z28	

316	2.100	-466.04721	1020.35071	144.79677	-458.79218	845.59326	149.00822	-584.20538	1129.14954	141.50597	-680.10779	939.77411	144.74605	-547.94739	1077.62207	331.48584	-610.63135	921.87006	399.12122	-643.37415	962.71436	410.99460	-668.17194	868.45862	420.58334	-696.99066	909.36700	432.98419	-763.71442	854.00848	454.64850	-789.62622	837.04083	374.01685	-657.17023	608.87762	411.62857	-689.19684	601.97772	461.36716	-609.69360	558.66394	462.87796	-644.78583	543.58069	473.66470	-587.21460	1069.26025	-41.41845	-698.50665	966.00452	-105.63300	-659.79730	941.85223	-122.49332	-749.10120	907.47345	-137.40016	-703.54218	881.52112	-154.30046	-767.35907	836.43823	-172.15964	-795.30341	818.00916	-93.90604	-659.63812	598.29486	-119.76382	-685.23279	579.92407	-184.48581	-598.91699	565.81378	-189.67134	-632.22919	537.26160	-201.31795	-532.11493	299.69937	452.11029	-521.96637	295.88083	-175.92465	-776.67029	845.52466	414.33267	-781.33124	827.22369	-133.03284	-673.18353	605.42767	436.49786	-672.43549	589.10944	-152.12482	-569.45001	892.68372	146.87714	-525.12628	1074.75012	143.15137	
317	2.107	-458.42770	1020.21820	144.44026	-451.83112	845.45099	148.99898	-576.24652	1129.29028	141.49156	-672.55713	940.27148	145.03267	-539.34039	1077.11511	331.60077	-600.99640	920.37189	399.23645	-634.05304	960.86017	411.69101	-657.98053	866.37872	421.08438	-686.97870	906.95270	434.05627	-753.18726	850.98016	455.82956	-779.50055	834.18030	375.12173	-645.59418	606.78107	411.75140	-676.65491	599.75110	461.91608	-596.98553	557.67432	463.88947	-631.83844	543.06079	475.14789	-579.16644	1069.09277	-41.80790	-689.92810	964.73328	-106.50495	-651.05695	941.21686	-123.51701	-739.94440	906.16772	-139.44609	-694.12238	880.70142	-155.91280	-757.50330	835.21545	-174.33739	-785.80054	816.33508	-96.34773	-647.13318	597.94604	-120.93015	-671.35229	580.09119	-186.22014	-584.83368	566.91528	-190.68022	-617.18341	538.32489	-202.85677	-525.21350	299.95306	452.56741	-514.97681	295.93750	-175.93445	-766.34393	842.58020	415.47565	-771.65192	825.77527	-135.34256	-661.12457	603.26605	436.83374	-659.24274	589.01862	-153.57513	-562.19415	892.86127	147.01582	-517.33710	1074.75427	142.96591	
318	2.113	-450.82248	1020.03937	144.30630	-444.85330	845.29767	148.95041	-568.27325	1129.44019	141.54788	-665.21509	940.73712	144.88632	-530.78027	1076.47314	332.05804	-591.55273	918.83911	399.47003	-624.62451	959.03406	412.40369	-647.78955	864.33105	421.72202	-676.90100	904.70215	435.01862	-742.43304	848.11169	457.28629	-769.50488	831.22131	376.56433	-633.96619	605.34027	411.93549	-664.08679	597.77020	462.83542	-584.11890	556.69672	464.41321	-618.90607	542.12280	476.42847	-571.19983	1068.98828	-42.16479	-681.51990	964.09857	-108.33634	-642.25922	940.59833	-124.76893	-730.80591	904.93744	-141.46327	-684.66986	879.87769	-157.71648	-747.37396	833.98834	-176.49516	-776.23828	814.65668	-98.96784	-634.75598	597.72504	-121.83773	-657.52173	580.31653	-187.79205	-570.39685	567.67834	-191.61942	-602.37958	539.45648	-204.49297	-518.25873	299.94244	452.49725	-507.90244	295.96451	-175.88931	-755.96899	839.66650	416.92529	-761.80609	824.32251	-137.73151	-649.02649	601.55524	437.38544	-646.13885	589.02081	-154.81490	-555.03418	893.01740	146.91837	-509.54785	1074.73975	142.92709	
319	2.120	-443.14847	1019.84174	144.08630	-437.92776	845.15637	148.87868	-560.24194	1129.60327	141.61871	-657.90930	941.20587	144.70671	-521.96918	1075.69617	332.21451	-582.07324	917.34351	399.69202	-615.27405	957.29150	413.11340	-637.79327	862.48633	422.27286	-666.96539	902.56427	436.14337	-731.84735	845.67139	458.79489	-759.75690	828.71265	378.44284	-621.81268	604.42157	412.38602	-651.38574	596.23956	463.59921	-571.62897	556.27069	465.51691	-605.34229	541.25861	477.46698	-563.24530	1068.88025	-42.44473	-672.88702	963.06677	-109.96075	-633.25519	939.91632	-125.96156	-721.42639	903.68121	-143.61151	-674.89172	879.04083	-159.53668	-736.98431	832.65247	-178.86613	-766.55420	812.94238	-101.65223	-622.17419	597.81067	-122.96850	-643.62567	580.42395	-189.25478	-555.93744	568.47644	-192.53967	-587.54974	540.19043	-205.77393	-511.34634	299.97507	452.53149	-500.89801	296.01166	-175.89212	-745.80212	837.19202	418.61887	-751.76923	822.79742	-140.25919	-636.59918	600.33057	437.99261	-632.89996	589.11731	-156.11163	-547.91852	893.18109	146.79269	-501.69519	1074.72253	142.85251	
